<svg version="1.0" xmlns="http://www.w3.org/2000/svg" width="300.000000pt" height="300.000000pt"
    viewBox="0 0 300.000000 300.000000" preserveAspectRatio="xMidYMid meet">
    <g transform="translate(0.000000,300.000000) scale(0.050000,-0.050000)" fill="#ffffff"
        stroke="none">
        <path
            d="M2660 5952 c-60 -25 -164 -73 -230 -106 -66 -33 -152 -66 -190 -73 -151 -28 -501 -355 -608 -568 -29 -58 -115 -166 -190 -241 -175 -172 -182 -195 -182 -680 0 -457 -1 -461 -231 -707 -82 -87 -149 -167 -149 -176 0 -20 413 114 515 167 l65 33 0 -105 c0 -59 14 -278 30 -488 35 -444 25 -538 -79 -712 -38 -64 -61 -116 -52 -116 10 0 21 7 24 15 4 8 44 45 90 80 46 36 116 115 156 175 96 144 91 155 91 -200 l0 -310 -145 1 c-80 0 -203 13 -274 28 -154 33 -152 34 -168 -67 l-13 -79 -115 -13 c-63 -7 -128 -14 -145 -16 -16 -3 -43 -41 -58 -85 l-28 -81 -156 -21 c-173 -23 -253 -64 -284 -145 -11 -30 -45 -69 -75 -86 -30 -17 -100 -106 -157 -198 l-102 -166 0 -314 c0 -371 35 -468 80 -223 50 265 166 555 266 660 85 89 135 88 120 -3 -24 -151 123 -672 277 -977 77 -154 78 -155 155 -155 l78 0 -107 205 c-117 226 -238 565 -259 733 -18 131 -1 125 113 -42 163 -240 277 -342 416 -374 l86 -19 -144 131 c-79 72 -190 200 -246 284 -56 83 -132 179 -168 213 l-66 61 191 124 c104 68 212 124 239 124 60 0 64 45 7 83 l-42 28 40 49 c53 66 58 57 94 -148 72 -413 345 -925 673 -1262 66 -68 -64 202 -204 421 -277 436 -426 888 -357 1086 l22 63 237 0 c303 0 417 24 521 112 120 100 140 90 90 -47 -101 -276 -51 -1257 82 -1628 l71 -197 109 0 c122 0 124 5 42 167 -48 94 -46 96 65 69 196 -47 750 -24 912 38 17 7 19 -11 6 -68 -42 -177 -31 -206 78 -206 l97 0 12 131 c8 81 59 269 133 485 246 725 267 1225 59 1371 l-47 33 59 0 c33 0 107 -24 165 -53 l105 -54 0 -133 c0 -448 -210 -1582 -316 -1710 -24 -29 -19 -27 19 7 159 139 380 1061 385 1600 l2 227 130 -12 c158 -16 304 -83 406 -188 l77 -79 -54 -57 c-29 -32 -103 -157 -164 -277 -60 -121 -152 -283 -204 -360 -52 -78 -141 -217 -198 -311 l-104 -170 81 90 c149 165 333 408 416 550 234 399 304 480 304 353 0 -112 -334 -878 -498 -1142 -177 -285 -179 -304 -20 -133 405 433 720 1168 609 1419 -16 35 -12 35 61 -3 111 -57 180 -135 151 -170 -27 -33 -11 -54 43 -54 29 0 214 -166 214 -191 0 -2 -27 -16 -61 -29 -37 -16 -97 -77 -153 -158 -51 -73 -134 -176 -184 -229 l-92 -97 105 64 c58 35 166 129 240 209 127 138 141 147 241 159 l105 14 49 -107 c76 -165 151 -517 164 -770 l12 -225 87 0 87 0 0 298 c0 666 -260 1242 -560 1242 -44 0 -77 17 -111 58 -53 63 -199 138 -390 201 -71 23 -156 70 -200 109 -118 107 -193 138 -364 148 -94 6 -156 18 -157 32 -6 69 6 412 15 469 l12 66 93 -89 c93 -92 272 -214 311 -214 14 1 14 5 0 15 -32 22 -180 226 -217 299 -36 71 -40 210 -13 406 9 72 24 219 31 327 l14 196 53 -14 c150 -42 435 -102 447 -96 7 4 -29 53 -80 109 -222 240 -244 302 -244 708 l0 299 -70 114 c-39 63 -78 155 -88 206 -21 112 -95 227 -200 312 -43 35 -111 115 -149 177 -271 440 -1060 747 -1473 574z m72 -1700 c66 -200 168 -372 320 -537 140 -151 214 -270 247 -395 14 -49 125 -92 254 -98 46 -2 287 167 287 201 0 11 -39 -14 -87 -57 -155 -135 -391 -163 -426 -49 -5 18 -27 72 -49 119 -42 95 -39 114 22 130 32 8 40 1 40 -39 0 -234 359 -222 368 12 2 74 -6 73 116 6 l100 -55 -11 -150 c-38 -509 -175 -759 -571 -1041 -375 -268 -430 -272 -759 -45 -354 243 -413 326 -537 762 -101 355 -103 494 -6 547 l70 38 12 -74 c34 -200 358 -181 358 21 0 63 18 65 87 11 49 -39 54 -39 66 -8 53 139 -326 251 -541 161 -107 -45 -106 -41 21 139 61 88 151 240 199 339 l87 180 -3 -180 c-3 -148 5 -198 43 -284 57 -132 101 -174 101 -98 0 72 18 66 105 -33 81 -91 80 -70 -3 99 -47 94 -53 221 -22 426 35 224 44 244 63 142 9 -49 31 -135 49 -190z m585 1 c86 -243 207 -376 473 -517 77 -41 124 -75 104 -75 -20 -1 -55 9 -76 20 -111 59 -295 63 -471 9 -41 -13 -44 -6 -55 133 -12 152 -26 558 -20 551 3 -2 23 -57 45 -121z m-1589 -729 c15 -30 34 -76 42 -104 l15 -50 -59 55 c-73 69 -76 68 -78 -6 -2 -42 4 -55 18 -41 36 36 74 -17 74 -101 0 -111 44 -184 170 -278 170 -129 176 -250 7 -156 -224 124 -408 561 -295 704 46 60 66 55 106 -23z m2569 -15 c87 -191 -193 -709 -383 -709 -64 0 -34 61 96 200 119 126 130 146 130 225 0 90 48 184 87 169 13 -5 23 11 23 39 0 60 0 60 -73 -24 -75 -85 -90 -79 -48 22 59 141 125 172 168 78z m-2384 -376 c62 -120 52 -133 -40 -53 -80 70 -102 120 -82 184 17 53 40 28 122 -131z m2187 70 c0 -57 -124 -225 -148 -201 -16 15 106 258 130 258 10 0 18 -26 18 -57z m-550 -1070 c-15 -197 -5 -239 75 -327 29 -32 36 -59 27 -100 l-12 -56 33 60 c44 81 46 83 68 49 10 -16 19 -79 19 -141 l0 -112 -130 -32 c-148 -37 -226 -89 -349 -235 l-85 -101 153 100 c138 90 352 168 382 138 17 -18 -34 -224 -65 -259 -159 -181 -958 -208 -1364 -46 l-82 33 0 136 0 135 95 -18 c52 -10 151 -44 221 -77 l126 -59 -43 55 c-78 100 -268 203 -374 204 -31 0 -32 66 -3 199 24 111 40 124 75 56 24 -45 24 -45 14 4 -6 30 4 64 25 87 26 29 36 84 41 225 l7 187 123 -97 c156 -122 342 -221 415 -221 56 0 391 210 538 338 39 33 73 61 77 61 4 1 0 -83 -7 -186z m-1150 -1228 c206 -69 939 -53 1163 26 l81 29 -13 -55 c-48 -193 -86 -203 -706 -191 -593 11 -672 30 -681 164 -6 78 -3 86 30 72 20 -8 77 -28 126 -45z m60 -310 c152 -31 846 -29 957 3 109 31 118 22 73 -78 -25 -56 -52 -84 -88 -92 -29 -7 -83 -20 -122 -31 -209 -56 -788 -35 -921 33 -78 41 -120 230 -44 201 19 -8 85 -24 145 -36z" />
        <path
            d="M2537 3409 c-71 -163 -238 -193 -392 -71 -56 45 -107 74 -113 66 -5 -9 33 -50 84 -92 157 -128 378 -82 446 93 48 121 29 124 -25 4z" />
        <path d="M2889 3032 c-14 -55 4 -99 32 -81 25 15 24 103 0 119 -11 6 -25 -11 -32 -38z" />
        <path
            d="M2850 2640 c-22 -9 -78 -18 -125 -19 -49 0 -85 -11 -85 -24 0 -16 30 -18 105 -6 58 10 186 16 285 14 l180 -3 -120 28 c-139 32 -185 34 -240 10z" />
        <path d="M3470 1178 c-88 -31 -146 -57 -128 -58 43 0 262 76 286 100 25 25 33 27 -158 -42z" />
        <path
            d="M2530 1170 c88 -26 178 -47 200 -47 22 0 -32 22 -120 47 -88 26 -178 47 -200 47 -22 0 32 -22 120 -47z" />
        <path
            d="M903 5168 c-15 -17 -38 -27 -51 -22 -14 6 -25 -9 -26 -33 -1 -24 2 -32 8 -18 5 14 24 25 43 25 18 0 45 18 58 40 30 47 7 52 -32 8z" />
        <path
            d="M1057 5185 c-11 -67 -9 -108 7 -117 9 -6 12 -31 6 -55 -11 -39 -10 -39 11 -7 13 22 15 45 4 60 -10 13 -16 49 -13 79 5 48 -8 81 -15 40z" />
        <path
            d="M4851 5109 c-35 -26 -35 -29 -4 -29 21 0 44 -24 56 -60 11 -33 30 -54 41 -47 11 6 13 18 3 25 -31 22 -69 103 -56 123 16 26 6 23 -40 -12z" />
        <path
            d="M322 5093 c-14 -17 -21 -43 -15 -57 6 -16 10 -12 11 10 1 20 11 31 21 25 11 -7 13 -27 6 -46 -11 -30 -9 -30 19 -4 17 16 25 34 17 39 -8 6 -19 22 -24 37 -7 22 -14 21 -35 -4z" />
        <path d="M5950 3340 c0 -80 9 -140 20 -140 18 0 20 46 12 235 -5 111 -32 30 -32 -95z" />
        <path d="M5760 2520 c0 -103 6 -181 13 -174 14 14 11 337 -4 352 -5 5 -9 -75 -9 -178z" />
        <path d="M5949 2190 c1 -49 8 -90 17 -90 9 0 14 41 11 90 -6 117 -28 117 -28 0z" />
        <path
            d="M1922 1730 c-75 -175 23 -1407 129 -1611 48 -93 49 -66 6 101 -39 151 -63 459 -94 1200 -13 328 -18 363 -41 310z" />
        <path
            d="M5560 954 c-15 -24 -137 -224 -270 -444 -133 -220 -258 -425 -278 -455 l-37 -55 51 0 c113 0 392 443 523 827 56 164 59 202 11 127z" />
    </g>
</svg> 