<svg version="1.0" xmlns="http://www.w3.org/2000/svg" width="300.000000pt" height="125.000000pt"
    viewBox="0 0 300.000000 125.000000" preserveAspectRatio="xMidYMid meet">
    <g transform="translate(0.000000,125.000000) scale(0.050000,-0.050000)" fill="#000000"
        stroke="none">
        <path
            d="M1010 2439 c-154 -68 -214 -117 -337 -276 -138 -178 -153 -215 -153 -395 0 -155 -3 -166 -69 -250 -84 -106 -82 -110 46 -61 l101 38 13 -83 c15 -102 3 -408 -18 -462 -9 -22 16 -5 57 40 l72 79 -6 -129 -6 -130 -112 6 c-88 6 -115 0 -125 -25 -6 -17 -30 -31 -52 -31 -22 0 -56 -17 -75 -38 -20 -21 -63 -45 -96 -53 -146 -35 -250 -190 -250 -373 0 -146 28 -169 49 -41 28 164 151 311 151 180 0 -130 120 -435 171 -435 38 0 39 -6 -32 146 -33 71 -66 165 -73 207 l-11 77 71 -92 c63 -82 109 -118 149 -118 7 0 -10 25 -38 55 -27 30 -79 93 -115 140 l-65 85 91 55 c50 30 87 66 82 79 -4 14 0 30 9 35 10 6 24 -26 31 -71 18 -104 149 -366 229 -458 51 -58 41 -30 -59 165 -100 194 -120 251 -120 335 l0 100 121 0 c67 0 145 13 175 28 l54 28 1 -283 c0 -333 39 -513 112 -513 35 0 39 8 28 52 -13 52 -12 52 83 40 53 -7 148 -5 211 5 l115 16 -5 -51 c-4 -41 5 -53 40 -58 36 -6 45 3 45 44 0 27 22 120 49 206 80 255 101 422 64 511 -35 84 -35 84 37 52 49 -23 51 -29 39 -145 -12 -122 -81 -521 -101 -587 -10 -30 -8 -31 10 -3 42 64 107 351 119 527 l13 181 60 -7 c50 -6 190 -73 190 -92 0 -8 -193 -341 -234 -404 -20 -31 -25 -49 -12 -41 13 9 75 92 137 185 102 153 149 210 149 181 0 -34 -113 -303 -181 -432 l-79 -150 68 76 c100 112 212 337 226 454 12 105 40 122 75 45 11 -23 40 -52 65 -63 48 -22 59 -51 27 -71 -10 -6 -48 -50 -85 -96 l-66 -84 60 42 c33 24 77 62 98 85 96 106 190 -58 192 -333 0 -73 6 -85 43 -85 42 0 43 6 31 179 -16 249 -116 461 -216 461 -20 0 -41 8 -47 19 -20 32 -376 201 -424 201 -44 0 -47 8 -47 110 0 113 16 133 61 79 63 -76 108 -79 62 -4 -72 116 -52 446 25 428 23 -6 69 -17 101 -25 l59 -14 -64 87 c-57 77 -64 102 -64 221 0 482 -525 876 -930 697z m267 -900 c46 -57 83 -94 83 -82 0 39 35 25 46 -19 14 -54 95 -45 124 14 17 35 28 38 66 21 49 -21 50 -70 3 -253 -35 -137 -261 -340 -379 -340 -176 0 -400 297 -400 530 0 66 53 105 70 51 17 -56 122 -57 140 -2 7 24 23 35 41 28 16 -6 29 -2 29 8 0 34 -117 71 -188 59 l-67 -11 73 126 72 126 11 -87 c9 -73 59 -174 59 -120 0 9 14 6 30 -8 36 -30 38 -19 7 48 -13 30 -17 85 -8 144 l14 95 46 -112 c25 -62 83 -159 128 -216z m209 89 c37 -32 85 -69 106 -83 32 -20 29 -21 -19 -4 -32 11 -87 14 -123 8 -71 -14 -92 30 -88 189 l1 72 27 -62 c15 -34 58 -88 96 -120z m-766 -168 c18 -33 16 -37 -15 -27 -29 11 -30 8 -10 -14 14 -15 25 -41 25 -57 0 -17 29 -60 64 -96 68 -71 66 -104 -4 -66 -57 31 -127 189 -111 252 14 58 23 60 51 8z m1073 -11 c18 -47 -50 -203 -108 -249 -58 -46 -85 -38 -43 13 15 18 25 49 22 68 -3 20 5 42 18 51 18 10 21 4 10 -24 -10 -27 -8 -32 7 -17 11 11 24 52 29 90 4 38 9 76 10 84 4 27 43 16 55 -16z m-289 -683 c12 -25 30 -40 39 -34 9 6 17 -16 17 -49 0 -50 -10 -62 -57 -72 -32 -7 -79 -35 -105 -63 l-46 -49 96 42 c110 49 133 39 91 -37 -81 -143 -619 -137 -619 8 0 55 39 60 150 19 32 -12 30 -7 -10 27 -27 23 -71 48 -97 55 -51 14 -48 85 8 141 16 16 29 60 29 97 0 84 0 84 103 9 105 -76 123 -75 257 16 l110 74 6 -70 c3 -38 15 -90 28 -114z m-284 -406 c82 1 184 9 225 18 80 19 94 4 44 -47 -65 -65 -549 -39 -549 30 0 31 9 34 65 18 36 -11 132 -19 215 -19z m240 -135 c0 -91 -470 -91 -505 -1 -8 20 47 26 247 26 196 0 258 -6 258 -25z" />
        <path
            d="M3353 1586 c-7 -7 -13 -83 -13 -169 l0 -157 -92 0 c-118 0 -111 -47 9 -56 l83 -6 0 -199 c0 -164 5 -199 30 -199 25 0 30 36 30 201 l0 201 85 -6 85 -6 6 -195 c7 -252 41 -252 48 0 l6 195 88 10 c130 15 132 60 4 60 l-102 0 0 171 c0 109 -7 167 -20 159 -11 -7 -20 -70 -20 -140 0 -173 -9 -190 -102 -190 l-78 0 0 159 c0 146 -15 199 -47 167z" />
        <path
            d="M2500 1510 c0 -21 21 -30 71 -30 l71 0 -13 -140 -14 -140 192 0 193 0 0 -129 c0 -156 -27 -191 -148 -191 -97 0 -121 -15 -89 -53 27 -33 156 -34 199 -1 65 49 98 149 98 293 l0 141 -190 0 c-211 0 -209 -2 -177 157 l12 63 218 0 c180 0 217 5 217 30 0 25 -49 30 -320 30 -271 0 -320 -5 -320 -30z" />
        <path
            d="M3980 1190 c0 -262 5 -310 30 -310 17 0 30 14 30 30 0 24 28 30 130 30 102 0 130 -6 130 -30 0 -16 9 -30 20 -30 12 0 20 117 20 310 l0 310 -180 0 -180 0 0 -310z m316 35 l5 -205 -130 0 -131 0 0 211 0 211 125 -6 125 -6 6 -205z" />
        <path d="M4091 1302 c-18 -29 100 -147 140 -139 29 6 29 11 -4 47 -74 80 -123 113 -136 92z" />
        <path
            d="M4600 1471 c0 -21 29 -31 105 -35 l105 -6 6 -275 c7 -350 44 -372 44 -27 0 313 0 312 122 312 74 0 98 7 98 30 0 25 -40 30 -240 30 -196 0 -240 -5 -240 -29z" />
        <path
            d="M5344 1475 c-35 -43 -28 -547 8 -577 22 -18 28 -16 28 10 0 26 23 32 130 32 105 0 130 -6 130 -32 0 -17 11 -28 25 -23 19 6 25 86 25 307 l0 298 -162 6 c-117 4 -168 -2 -184 -21z m296 -245 l0 -210 -130 0 -130 0 0 197 c0 231 -5 223 143 223 l117 0 0 -210z" />
        <path
            d="M5435 1295 c-9 -27 101 -135 138 -135 21 0 21 10 3 50 -12 28 -34 50 -49 50 -15 0 -27 8 -27 18 0 27 -56 43 -65 17z" />
        <path d="M798 668 c-4 -124 7 -362 22 -448 9 -51 11 37 5 200 -10 270 -22 384 -27 248z" />
        <path
            d="M2194 196 c-113 -186 -128 -233 -53 -165 45 41 191 324 175 339 -5 6 -60 -72 -122 -174z" />
    </g>
</svg> 